<svg width="42" height="42" viewBox="0 0 42 42" fill="none" xmlns="http://www.w3.org/2000/svg">
<path d="M35.0569 34.6632H6.94312C5.55073 34.6632 4.21537 34.11 3.2308 33.1255C2.24624 32.1409 1.69312 30.8055 1.69312 29.4132V12.5869C1.69312 11.1945 2.24624 9.85917 3.2308 8.8746C4.21537 7.89004 5.55073 7.33691 6.94312 7.33691H35.0569C36.4492 7.33691 37.7846 7.89004 38.7692 8.8746C39.7537 9.85917 40.3069 11.1945 40.3069 12.5869V29.4132C40.3069 30.8055 39.7537 32.1409 38.7692 33.1255C37.7846 34.11 36.4492 34.6632 35.0569 34.6632ZM6.94312 8.64941C5.89883 8.64941 4.89731 9.06426 4.15888 9.80268C3.42046 10.5411 3.00562 11.5426 3.00562 12.5869V29.4132C3.00562 30.4575 3.42046 31.459 4.15888 32.1974C4.89731 32.9358 5.89883 33.3507 6.94312 33.3507H35.0569C36.1012 33.3507 37.1027 32.9358 37.8411 32.1974C38.5795 31.459 38.9944 30.4575 38.9944 29.4132V12.5869C38.9944 11.5426 38.5795 10.5411 37.8411 9.80268C37.1027 9.06426 36.1012 8.64941 35.0569 8.64941H6.94312Z" fill="white"/>
<path d="M21.0001 24.6618C19.8611 24.6684 18.7509 24.3045 17.8369 23.6249L2.50693 12.0158C2.4243 11.971 2.35227 11.909 2.2957 11.8339C2.23914 11.7588 2.19936 11.6725 2.17906 11.5807C2.15876 11.4889 2.15841 11.3938 2.17804 11.3019C2.19768 11.21 2.23682 11.1234 2.29284 11.0479C2.34886 10.9724 2.42044 10.9098 2.50274 10.8644C2.58503 10.819 2.67613 10.7918 2.76985 10.7846C2.86358 10.7775 2.95774 10.7905 3.04598 10.8229C3.13422 10.8553 3.21447 10.9063 3.2813 10.9724L18.6244 22.5552C19.3083 23.0726 20.1425 23.3526 21.0001 23.3526C21.8576 23.3526 22.6918 23.0726 23.3757 22.5552L38.7188 10.9724C38.7869 10.9157 38.8658 10.8733 38.9507 10.8479C39.0355 10.8225 39.1247 10.8145 39.2128 10.8245C39.3008 10.8344 39.3859 10.8622 39.463 10.9059C39.5401 10.9497 39.6075 11.0086 39.6611 11.0791C39.7148 11.1497 39.7536 11.2303 39.7753 11.3162C39.7969 11.4022 39.8009 11.4916 39.7871 11.5791C39.7732 11.6667 39.7418 11.7505 39.6947 11.8255C39.6475 11.9006 39.5857 11.9653 39.5129 12.0158L24.1632 23.6249C23.2492 24.3045 22.139 24.6684 21.0001 24.6618Z" fill="white"/>
<path d="M2.73653 31.9201C2.60478 31.9185 2.47657 31.8772 2.3686 31.8017C2.26063 31.7261 2.17789 31.6198 2.13116 31.4966C2.08443 31.3734 2.07587 31.239 2.10659 31.1109C2.13731 30.9828 2.20589 30.8668 2.30341 30.7782L14.3718 20.0092C14.5033 19.8934 14.6753 19.8346 14.85 19.8457C15.0248 19.8568 15.188 19.9368 15.3037 20.0682C15.4195 20.1996 15.4783 20.3716 15.4672 20.5464C15.4561 20.7212 15.3761 20.8844 15.2447 21.0001L3.17622 31.756C3.05489 31.8631 2.89831 31.9215 2.73653 31.9201ZM39.2634 31.9201C39.1016 31.9215 38.945 31.8631 38.8237 31.756L26.7553 21.0001C26.6858 20.9444 26.6284 20.875 26.5866 20.7964C26.5448 20.7177 26.5194 20.6314 26.512 20.5426C26.5046 20.4539 26.5154 20.3645 26.5437 20.28C26.5719 20.1956 26.6171 20.1177 26.6764 20.0513C26.7358 19.9848 26.808 19.9311 26.8887 19.8935C26.9694 19.8559 27.057 19.835 27.146 19.8323C27.2351 19.8296 27.3237 19.8451 27.4066 19.8777C27.4895 19.9104 27.5648 19.9596 27.6281 20.0223L39.6965 30.7782C39.826 30.8941 39.9042 31.0566 39.9141 31.23C39.9239 31.4035 39.8645 31.5738 39.749 31.7035C39.6877 31.7715 39.6128 31.8259 39.5291 31.8632C39.4455 31.9005 39.355 31.9199 39.2634 31.9201Z" fill="white"/>
</svg>
